# xmcd
# 
# Track frame offsets:
#     150
#     12688
#     24441
#     36691
#     50760
#     64891
#     77156
#     89429
#     101258
#     116867
#     130531
#     141222
#     154151
#     168370
#     181052
#     192282
#     202955
#     217088
#     229769
#     243251
#     255641
# 
# Disc length: 3584
# 
# Revision: 3
# Processed by: cddbd v1.5.2PL0 Copyright (c) Steve Scherf et al.
# Submitted via: fre:ac v1.0.31
# 
DISCID=2b0dfe15
DTITLE=Vee - Jay - Vee-Jay:  The Definitive Collection Disc 1
DYEAR=2007
DGENRE=R&B
TTITLE0=Jimmy Reed and His Trio - High and Lonesome
TTITLE1=The Spaniels - Baby, It's You
TTITLE2=The Spaniels - Goodnite Sweetheart, Goodnite
TTITLE3=Floyd Jones and His Band - Ain't Times Hard
TTITLE4=Jimmy Reed and His Trio - You Don't Have to Go
TTITLE5=L.C. McKinley - Blue Evening
TTITLE6=Billy Boy Arnold - I Wish You Would
TTITLE7=The El Dorados - At My Front Door
TTITLE8=Morris Pejoe - Hurt My Feelings
TTITLE9=Eddie Taylor - Bad Boy
TTITLE10=The Highway Q.C.'s - Somewhere to Lay My Head
TTITLE11=Jay McShann Orchestra - Hands Off
TTITLE12=The Five Echoes - Fool's Prayer
TTITLE13=Earl Phillips - Oop de Oop
TTITLE14=The El Dorados with Al Smith's Orchestra - I'll Be Forever Loving You
TTITLE15=Jimmy Reed - Ain't That Lovin' You Baby
TTITLE16=Al Smith Combo - Fooling Around Slowly
TTITLE17=The Magnificents - Up on the Mountain
TTITLE18=Eddie Taylor - Big Town Playboy
TTITLE19=Camille Howard - Rock 'n Roll Mama
TTITLE20=The Dells - Oh What a Nite
EXTD=
EXTT0=
EXTT1=
EXTT2=
EXTT3=
EXTT4=
EXTT5=
EXTT6=
EXTT7=
EXTT8=
EXTT9=
EXTT10=
EXTT11=
EXTT12=
EXTT13=
EXTT14=
EXTT15=
EXTT16=
EXTT17=
EXTT18=
EXTT19=
EXTT20=
PLAYORDER=
